Coordinates
version=1
nRows=11
nColumns=63
inDegrees=yes

Units are S.I. units (second, meters, Newtons, ...)
If the header above contains a line with 'inDegrees', this indicates whether rotational values are in degrees (yes) or radians (no).

endheader
time	pelvis_tilt	pelvis_list	pelvis_rotation	pelvis_tx	pelvis_ty	pelvis_tz	hip_flexion_r	hip_adduction_r	hip_rotation_r	knee_angle_r	knee_angle_r_beta	ankle_angle_r	subtalar_angle_r	mtp_angle_r	hip_flexion_l	hip_adduction_l	hip_rotation_l	knee_angle_l	knee_angle_l_beta	ankle_angle_l	subtalar_angle_l	mtp_angle_l	L5_S1_Flex_Ext	L5_S1_Lat_Bending	L5_S1_axial_rotation	L4_L5_Flex_Ext	L4_L5_Lat_Bending	L4_L5_axial_rotation	L3_L4_Flex_Ext	L3_L4_Lat_Bending	L3_L4_axial_rotation	L2_L3_Flex_Ext	L2_L3_Lat_Bending	L2_L3_axial_rotation	L1_L2_Flex_Ext	L1_L2_Lat_Bending	L1_L2_axial_rotation	L1_T12_Flex_Ext	L1_T12_Lat_Bending	L1_T12_axial_rotation	Abs_r3	Abs_r2	Abs_r1	Abs_t1	Abs_t2	neck_flexion	neck_bending	neck_rotation	arm_flex_r	arm_add_r	arm_rot_r	elbow_flex_r	pro_sup_r	wrist_flex_r	wrist_dev_r	arm_flex_l	arm_add_l	arm_rot_l	elbow_flex_l	pro_sup_l	wrist_flex_l	wrist_dev_l
      2.53333333	     -1.05756719	     -2.17087302	     75.94622346	      0.47680536	      0.74938988	      1.00539183	      0.60807536	      1.46471193	     18.99425471	      7.08879911	      0.12372288	     22.62883843	     -8.45826317	      0.00000000	     -3.44925200	     -0.05009011	    -17.57864793	      4.35685789	      0.07604152	     26.77874361	     -3.75489906	      0.00000000	      0.02065786	      0.09241994	      2.03981996	      0.03836372	      0.12291852	      2.16730871	      0.03393880	      0.22470983	      2.16730871	      0.02360987	      0.22470983	      1.78484247	      0.01918289	      0.18846273	      1.65735372	      0.01180390	      0.14315848	      1.52986497	      0.14755704	      1.04547280	     11.34486670	      0.00000000	      0.00000000	      4.09102425	     -2.48216337	      2.54291690	     30.19741326	    -12.25714099	     18.94019005	     60.12651907	     50.64585076	      4.49469935	     15.46590846	     36.74766255	     -7.37259685	     37.34381509	     51.29372611	     49.09100466	     13.33417091	     13.08514203
      2.55000000	     -1.36258557	     -2.26318825	     76.96803506	      0.47576385	      0.74923619	      1.00637420	      0.68374466	      1.11315360	     18.08552925	      6.91852232	      0.12075099	     22.69461835	     -8.11207545	      0.00000000	     -2.92136274	      0.05894400	    -17.18034083	      4.84163356	      0.08450245	     27.02513039	     -2.92809404	      0.00000000	      0.02304433	      0.06083397	      1.89371828	      0.04279563	      0.08090918	      2.01207567	      0.03785953	      0.14791172	      2.01207567	      0.02633737	      0.14791172	      1.65700350	      0.02139897	      0.12405264	      1.53864610	      0.01316753	      0.09423182	      1.42028871	      0.16460336	      0.68816607	     10.53229296	      0.00000000	      0.00000000	      4.50150649	     -2.45837270	      2.79220205	     29.09075388	    -12.36532790	     17.64223346	     60.66129741	     55.43987809	      4.20073121	     14.74258785	     34.47622061	     -8.14019941	     34.72932380	     53.67505839	     53.74405301	      8.52088745	     11.60084916
      2.56666667	     -1.61293814	     -2.39952846	     77.97984772	      0.47461516	      0.74914461	      1.00797222	      0.91632167	      0.80595347	     16.63655601	      6.91062075	      0.12061309	     22.93976043	     -6.94063892	      0.00000000	     -2.28602172	      0.06302229	    -17.77945470	      5.48275489	      0.09569212	     27.47174055	     -0.94654401	      0.00000000	      0.01396386	      0.04117687	      1.80322897	      0.02593228	      0.05476524	      1.91593078	      0.02294122	      0.10011744	      1.91593078	      0.01595929	      0.10011744	      1.57782535	      0.01296684	      0.08396787	      1.46512354	      0.00797895	      0.06378297	      1.35242173	      0.09974244	      0.46580097	     10.02901856	      0.00000000	      0.00000000	      5.14680186	     -2.33760134	      3.07653490	     27.71153126	    -12.26780243	     15.23794907	     61.15508547	     62.12869705	      3.98923796	     13.67731359	     32.19027322	     -8.65861709	     31.89481873	     55.48871879	     59.23387409	      5.76085678	     10.28513555
      2.58333333	     -1.78613753	     -2.63908483	     79.16896441	      0.47311470	      0.74913652	      1.01001175	      1.33404762	      0.58773819	     14.73159313	      7.06137329	      0.12324421	     23.29036458	     -5.46497614	      0.00000000	     -1.43578210	     -0.10837946	    -18.92025260	      6.37813029	      0.11131937	     28.10217029	      1.95277408	      0.00000000	      0.01028831	      0.03234276	      1.71452780	      0.01910643	      0.04301588	      1.82168579	      0.01690267	      0.07863820	      1.82168579	      0.01175851	      0.07863820	      1.50021183	      0.00955373	      0.06595337	      1.39305384	      0.00587874	      0.05009894	      1.28589585	      0.07348839	      0.36586782	      9.53568928	      0.00000000	      0.00000000	      5.87882981	     -2.42324860	      2.91421750	     25.90900314	    -12.35795422	     12.96812298	     61.93759844	     68.72714220	      2.63460537	     11.76689105	     30.26659721	     -9.52660535	     30.56808582	     56.87340265	     63.69164420	      3.15130475	      8.19578343
      2.60000000	     -1.85656129	     -2.95709206	     80.19080934	      0.47159334	      0.74926959	      1.01223595	      1.87462249	      0.47637446	     12.92839568	      7.24213840	      0.12639916	     23.54439786	     -4.05144821	      0.00000000	     -0.57098426	     -0.33056728	    -19.80606279	      7.15722863	      0.12491720	     28.47585630	      4.12033826	      0.00000000	      0.00533442	      0.03975435	      1.68427518	      0.00990654	      0.05287329	      1.78954238	      0.00876391	      0.09665874	      1.78954238	      0.00609670	      0.09665874	      1.47374078	      0.00495354	      0.08106708	      1.36847358	      0.00304809	      0.06157950	      1.26320639	      0.03810320	      0.44970921	      9.36743328	      0.00000000	      0.00000000	      6.78831585	     -2.49543173	      2.69838871	     23.41306868	    -12.59651331	     10.49150832	     63.17196636	     75.48585734	      1.35267377	      9.53086398	     28.54094042	    -10.58380280	     29.94182297	     57.86073883	     68.82738646	      1.12707410	      5.67779845
      2.61666667	     -1.89035371	     -3.24100631	     81.15607127	      0.47004934	      0.74968427	      1.01415786	      2.42058377	      0.32021351	     10.25081421	      7.49097436	      0.13074217	     24.22728726	     -1.28784863	      0.00000000	      0.20345231	     -0.58849140	    -20.97650111	      7.90529243	      0.13797338	     28.80928495	      6.65377566	      0.00000000	     -0.00657703	      0.05447573	      1.67734020	     -0.01221421	      0.07245272	      1.78217396	     -0.01080541	      0.13245229	      1.78217396	     -0.00751689	      0.13245229	      1.46767267	     -0.00610743	      0.11108691	      1.36283891	     -0.00375812	      0.08438290	      1.25800515	     -0.04697909	      0.61624033	      9.32886297	      0.00000000	      0.00000000	      7.65710043	     -2.76602696	      2.46120429	     20.26421639	    -13.03621894	      8.38964953	     64.69706531	     80.42669090	      0.02296574	      6.93150442	     27.01634879	    -11.72791301	     29.71275459	     58.15281177	     75.86645027	      0.08003269	      2.12216134
      2.63333333	     -1.94572236	     -3.52204637	     82.09160109	      0.46867538	      0.75022800	      1.01584538	      2.85679971	      0.22769153	      9.10545893	      7.51063927	      0.13108538	     24.37379903	     -0.76235814	      0.00000000	      0.94397625	     -0.70598047	    -20.82537185	      8.50176154	      0.14838373	     28.73005061	      7.24451770	      0.00000000	     -0.02035362	      0.06510062	      1.70085271	     -0.03779870	      0.08658383	      1.80715600	     -0.03343896	      0.15828566	      1.80715600	     -0.02326215	      0.15828566	      1.48824612	     -0.01890037	      0.13275319	      1.38194282	     -0.01163006	      0.10084087	      1.27563953	     -0.14538386	      0.73643128	      9.45963249	      0.00000000	      0.00000000	      8.65621684	     -2.87076238	      2.31918023	     16.59423420	    -13.52740563	      6.26655124	     66.24076647	     83.06835659	     -0.52218526	      4.41797163	     26.24127718	    -13.37285445	     31.32824206	     57.74808820	     82.71238533	     -1.78410009	     -3.03111165
      2.65000000	     -2.06661113	     -3.77406259	     82.78217165	      0.46776866	      0.75075844	      1.01674112	      3.20185134	      0.02944264	      7.61344788	      7.44930151	      0.13001484	     24.75000120	      0.62086063	      0.00000000	      1.49622809	     -0.70752789	    -20.94367402	      8.87138938	      0.15483495	     28.59340526	      7.90657375	      0.00000000	     -0.03049098	      0.06907841	      1.73018018	     -0.05662480	      0.09187428	      1.83831644	     -0.05009363	      0.16795724	      1.83831644	     -0.03484814	      0.16795724	      1.51390766	     -0.02831392	      0.14086469	      1.40577140	     -0.01742255	      0.10700245	      1.29763514	     -0.21779403	      0.78142874	      9.62274312	      0.00000000	      0.00000000	      9.65653676	     -3.26032665	      2.45420858	     12.78946709	    -13.76745322	      4.25759305	     67.58277668	     84.20558584	     -0.02630531	      2.63054196	     25.48162215	    -15.26533169	     33.35610756	     57.22964398	     87.39550799	     -4.47800048	     -8.12307502
      2.66666667	     -2.32417863	     -4.01888611	     83.46640881	      0.46733772	      0.75116941	      1.01712814	      3.58469823	     -0.36005663	      4.93939978	      7.59335818	      0.13252910	     25.44872149	      3.49395310	      0.00000000	      2.02275554	     -0.58189781	    -21.03085008	      9.22741492	      0.16104877	     28.46757521	      8.54250291	      0.00000000	     -0.03005795	      0.04426966	      1.75263737	     -0.05582062	      0.05887865	      1.86217721	     -0.04938220	      0.10763726	      1.86217721	     -0.03435323	      0.10763726	      1.53355770	     -0.02791181	      0.09027470	      1.42401786	     -0.01717511	      0.06857371	      1.31447803	     -0.21470092	      0.50078728	      9.74764326	      0.00000000	      0.00000000	     10.45723574	     -3.21149054	      2.59866177	      9.03494597	    -13.82657127	      2.51010681	     68.49383046	     83.94887311	      0.96261831	      1.16916880	     25.16426495	    -17.51868595	     36.84594966	     56.47283261	     88.41048115	     -8.81700840	    -12.89101341
      2.68333333	     -2.52268494	     -4.14320284	     84.24845416	      0.46698824	      0.75147598	      1.01655701	      3.54044079	     -0.59379920	      3.95673074	      7.38381325	      0.12887185	     25.44995641	      3.73724116	      0.00000000	      2.30621683	     -0.44836758	    -20.63036474	      9.43741469	      0.16471396	     28.32815641	      8.76677914	      0.00000000	     -0.03257681	      0.02085818	      1.66340473	     -0.06049839	      0.02774137	      1.76736753	     -0.05352044	      0.05071457	      1.76736753	     -0.03723203	      0.05071457	      1.45547914	     -0.03025082	      0.04253399	      1.35151635	     -0.01861439	      0.03230931	      1.24755355	     -0.23269289	      0.23595185	      9.25135811	      0.00000000	      0.00000000	     11.15593458	     -3.07706275	      3.22774502	      5.94616633	    -13.73370432	      1.41204222	     68.62962903	     83.09378169	      2.84912040	      0.61462056	     23.75374304	    -19.51138146	     37.94019087	     56.05297100	     88.83804852	    -12.19820211	    -16.26697488
      2.70000000	     -2.70732141	     -4.07703293	     84.51674787	      0.46717820	      0.75161610	      1.01533382	      3.31834193	     -0.80578413	      3.69320880	      7.34462320	      0.12818786	     25.41584612	      3.66667878	      0.00000000	      2.23858838	     -0.28382300	    -20.52218997	      9.54797634	      0.16664362	     28.32247176	      8.83355914	      0.00000000	     -0.04520011	     -0.00799049	      1.67903186	     -0.08394113	     -0.01062735	      1.78397135	     -0.07425926	     -0.01942807	      1.78397135	     -0.05165921	     -0.01942807	      1.46915288	     -0.04197282	     -0.01629420	      1.36421339	     -0.02582734	     -0.01237726	      1.25927390	     -0.32285988	     -0.09038998	      9.33827151	      0.00000000	      0.00000000	     11.45791274	     -2.93220080	      3.24711491	      3.20922115	    -13.90284511	      0.87742260	     68.46093650	     82.74198901	      3.30240054	      0.52989078	     21.86028512	    -21.17555240	     37.43269936	     55.97466614	     88.97431547	    -12.93474711	    -16.81750524
